<?xml version="1.0" encoding="UTF-8"?>
<svg class="flex lg:w-full lg:h-full fill-current" id="a"
    xmlns="http://www.w3.org/2000/svg"
    xmlns:xlink="http://www.w3.org/1999/xlink" viewBox="0 0 753.23 328.43">
    <defs>
        <style>.c{clip-path:url(#b);}.d{fill:none;}.e{fill:#231f20;}.f{fill:#58595b;}</style>
        <clipPath id="b">
            <rect class="d" width="753.23" height="328.43"/>
        </clipPath>
    </defs>
    <g class="c">
        <path class="f" d="M228.46,176.62c-2.19-1.65-4.2-3.35-5.88-5.37-9.88-11.84-12.09-24.99-6.65-39.42,.23-.61,.59-1.09,1.3-.81,.71,.28,.64,.87,.38,1.47-2.17,5.15-3.06,10.52-2.68,16.09,.58,8.47,3.78,15.83,9.52,22.08,1.92,2.09,4.1,3.88,6.45,5.48,.65,.45,.9,.33,1.28-.33,5.38-9.37,10.79-18.73,16.22-28.07,.42-.72,.38-1.05-.39-1.48-5.25-2.98-10.48-6-15.69-9.06-.77-.45-1.13-.38-1.39,.46-.17,.56-.4,1.1-.63,1.63-.28,.65-.78,.97-1.49,.77-.76-.22-1.04-.84-.81-1.54,.98-3.03,2.54-5.76,4.71-8.1,.47-.5,1.13-.42,1.6-.03,.49,.4,.58,1.03,.21,1.58-.38,.56-.81,1.1-1.26,1.61-.49,.55-.43,.86,.24,1.24,3.9,2.21,7.77,4.47,11.65,6.71,1.43,.83,2.88,1.63,4.3,2.48,.72,.44,.91,.21,.9-.53-.02-1.24-.02-2.47,0-3.71,0-.28-.17-.77,.31-.76,.35,0,.26,.46,.26,.73,.01,1.02,0,2.05,.21,3.13,.59-1.01,1.19-2.03,1.78-3.05,4.69-8.12,9.37-16.25,14.08-24.36,.38-.65,.36-.92-.36-1.26-4.67-2.28-9.6-3.53-14.79-3.76-.82-.04-.96,.25-.95,.97,0,.42,.31,1.2-.29,1.21-.51,.01-.26-.77-.24-1.16,.05-.78-.14-1.06-.99-1.01-9.09,.45-16.96,3.76-23.57,10.01-1.3,1.23-2.48,2.57-3.57,4-.41,.54-.89,.96-1.54,.44-.6-.49-.3-1.03,.1-1.53,6.71-8.47,15.39-13.36,26.15-14.51,.84-.09,1.69-.18,2.53-.16,.67,.01,.89-.19,.88-.87-.04-2.11-.02-4.23-.01-6.34,0-1.14,.17-1.33,1.3-1.29,1.88,.06,3.77,.15,5.63,.49,.26,.05,.7-.08,.61,.38-.08,.41-.49,.22-.74,.18-1.73-.29-3.49-.33-5.24-.49-.79-.07-1.01,.19-.99,.96,.05,2.05,.02,4.1,.01,6.15,0,.46,0,.81,.63,.82,4.87,.07,9.51,1.16,13.99,3.02,.05,.02,.12,.01,.26,.03-.15-3.29,1.33-5.41,4.73-6.25-1.09-.68-2.15-1.05-3.17-1.5-.25-.11-.79-.12-.57-.59,.17-.38,.54-.05,.76,.05,1.43,.62,2.86,1.24,4.24,1.96,.58,.3,.86,.31,1.19-.31,.76-1.43,1.6-2.82,2.42-4.22,.72-1.24,1.32-1.55,2.09-1.1,.74,.44,.75,1.11,.02,2.38-.81,1.4-1.62,2.82-2.46,4.21-.28,.46-.24,.76,.1,1.19,2.06,2.59,1.36,6.33-1.51,7.86-.84,.45-.69,.62-.08,1.09,6.95,5.38,11.49,12.37,13.58,20.9,1.95,7.94,1.27,15.71-1.8,23.28-.24,.59-.58,1.1-1.3,.81-.72-.29-.61-.9-.36-1.49,2.16-5.22,3.11-10.65,2.65-16.29-.87-10.52-5.44-19.1-13.7-25.69-.73-.59-1.55-1.07-2.28-1.66-.59-.47-.86-.36-1.23,.28-2.47,4.35-4.98,8.67-7.48,12.99-2.92,5.06-5.83,10.13-8.78,15.17-.42,.72-.3,1.02,.39,1.41,5.24,2.99,10.47,6.01,15.67,9.06,.81,.48,1.19,.35,1.44-.53,.12-.43,.34-.84,.51-1.26,.36-.93,.97-1.31,1.68-1.04,.7,.26,.98,.97,.63,1.89-.82,2.2-1.87,4.28-3.3,6.16-.35,.46-.72,.93-1.1,1.36-.52,.59-1.16,.77-1.79,.23-.62-.53-.57-1.18-.08-1.81,.4-.51,.8-1.03,1.21-1.53,.34-.41,.32-.71-.18-.99-5.4-3.1-10.8-6.21-16.2-9.33-.59-.34-.81-.23-.81,.46,.01,1.33,0,2.67-.02,4,0,.23,.09,.6-.32,.57-.29-.03-.24-.34-.25-.56,0-1.07,0-2.14,0-3.24-.46,.07-.51,.44-.66,.69-5.15,8.9-10.29,17.82-15.46,26.72-.37,.64-.28,.9,.37,1.21,4.65,2.26,9.54,3.5,14.7,3.77,.87,.05,1.15-.18,1.07-1.05-.04-.39-.26-1.15,.26-1.17,.57-.02,.34,.74,.3,1.11-.1,.9,.19,1.15,1.1,1.1,10.98-.67,19.96-5.23,26.87-13.81,.12-.15,.24-.31,.36-.46,.36-.46,.82-.55,1.28-.22,.48,.35,.48,.85,.13,1.28-.87,1.09-1.73,2.19-2.7,3.2-6.07,6.35-13.45,10.17-22.15,11.42-1.38,.2-2.77,.36-4.17,.34-.65,0-.73,.25-.73,.8,.02,2.37,.01,4.75,0,7.12,0,.23,0,.46,0,.68-.01,.19-.01,.42-.28,.43-.26,0-.29-.21-.29-.42,0-.49,0-.98,0-1.46,0-2.15,0-4.29,0-6.44,0-.42,0-.7-.6-.71-4.82-.11-9.46-1.1-13.9-3.01-.11-.05-.24-.04-.46-.07,.1,1.29,0,2.5-.67,3.6-1.17,1.91-3.17,2.9-5.37,2.52-.58-.1-.81,.08-1.06,.53-.85,1.53-1.74,3.04-2.62,4.56-.53,.91-1.19,1.18-1.89,.79-.68-.38-.77-1.09-.23-2.04,.87-1.52,1.76-3.04,2.64-4.55,.18-.31,.36-.55,.09-.96-2.34-3.57-1.64-6.47,2.17-8.56m4.47,2.9c-.15,.21-.26,.34-.34,.47-.9,1.54-1.79,3.08-2.69,4.62-.35,.6,.08,.57,.46,.54,1.3-.1,2.28-.71,2.89-1.86,.68-1.27,.54-2.49-.33-3.78m41.67-68.66c0-.56-.17-1.09-.4-1.59-.22-.47-.43-.62-.75-.04-.84,1.5-1.72,2.97-2.59,4.45-.33,.55-.09,.67,.44,.65,1.74-.06,3.29-1.68,3.31-3.47m-6.98,.04c-.02,.57,.16,1.09,.42,1.58,.19,.36,.4,.54,.67,.06,.89-1.55,1.77-3.1,2.67-4.64,.27-.46,.07-.53-.36-.55-1.79-.06-3.41,1.62-3.39,3.55m-40.93,70.76c.03,.49,.15,1.06,.41,1.59,.25,.52,.47,.55,.77,.03,.85-1.49,1.7-2.98,2.57-4.46,.35-.6,.04-.63-.45-.62-1.69,.04-3.19,1.56-3.3,3.46"/>
        <path class="f" d="M250.32,125.89c0-2.14,0-4.28,.01-6.42,0-.29-.24-.84,.35-.82,.48,.02,.29,.5,.29,.79,.01,4.28,.02,8.57,0,12.85,0,.31,.19,.84-.36,.82-.46-.01-.29-.5-.3-.8-.01-2.14,0-4.28,0-6.42"/>
        <path class="f" d="M250.31,166.67c0-2.14,0-4.29,0-6.43,0-.31-.18-.84,.36-.84,.46,0,.31,.5,.31,.79,0,4.29,0,8.57,0,12.86,0,.1,0,.2,0,.29-.02,.25,.02,.58-.36,.56-.38-.02-.3-.36-.3-.61,0-1.92,0-3.83,0-5.75v-.88h0Z"/>
        <path class="f" d="M259.69,101.1c1.9,.41,3.82,.86,5.67,1.55,.21,.08,.35,.19,.25,.42-.08,.18-.27,.19-.42,.14-1.85-.68-3.77-1.14-5.69-1.54-.2-.04-.38-.16-.32-.4,.07-.27,.31-.15,.52-.18"/>
        <path class="f" d="M282.34,92.05c-.52,.88-1.01,1.74-1.53,2.59-.08,.14-.27,.19-.43,.07-.15-.11-.17-.29-.09-.43,.47-.84,.95-1.68,1.45-2.5,.09-.14,.28-.19,.42-.07,.08,.07,.11,.21,.18,.34"/>
        <path class="f" d="M250.96,156.48c0,.45,0,.9,0,1.36,0,.18-.08,.33-.26,.36-.23,.03-.36-.13-.37-.35-.01-.9-.01-1.81,0-2.71,0-.2,.07-.4,.32-.39,.24,0,.33,.17,.33,.39,0,.45,0,.9,0,1.35h-.02"/>
        <path class="f" d="M250.98,176.82c0,.42,0,.84,0,1.26,0,.23-.02,.49-.34,.48-.25,0-.3-.22-.3-.41,0-.87,0-1.75,0-2.62,0-.19,.04-.42,.29-.43,.31-.02,.36,.22,.36,.46,0,.42,0,.84,0,1.26h0Z"/>
        <path class="f" d="M278.19,98.8c-.4-.12-.29-.4-.17-.61,.42-.76,.87-1.51,1.31-2.26,.1-.17,.23-.34,.46-.21,.17,.09,.23,.27,.15,.41-.48,.87-.98,1.73-1.49,2.59-.04,.06-.17,.06-.26,.09"/>
        <path class="f" d="M250.96,136.06c0,.48,0,.96,0,1.44,0,.17-.11,.3-.3,.3-.2,0-.3-.13-.3-.3,0-.96,0-1.92,0-2.89,0-.16,.09-.31,.29-.31,.2,0,.29,.16,.3,.32,.02,.48,0,.96,0,1.44h0Z"/>
        <path class="f" d="M250.97,115.71c0,.45,0,.9,0,1.35,0,.17-.1,.33-.27,.35-.24,.03-.36-.16-.36-.36,0-.93,0-1.87,.01-2.8,0-.18,.11-.29,.31-.29,.19,0,.3,.12,.3,.3,.01,.48,0,.97,0,1.45h0Z"/>
        <path class="e" d="M78.03,168.51V100.84h29.2c16.56,0,24.84,6.63,24.84,19.88s-9.2,20.08-27.61,20.08h-6.79v27.71h-19.63Zm19.63-33.96h4.41c7.14,0,10.71-4.73,10.71-14.18,0-8.86-3.57-13.29-10.71-13.29h-4.41v27.47Z"/>
        <path class="e" d="M138.02,168.51v-49.92c5.65,0,11.68-.45,18.1-1.34v51.26h-18.1Zm9.17-69.36c5.62,0,8.43,2.18,8.43,6.54s-2.81,6.54-8.43,6.54-8.43-2.18-8.43-6.54,2.81-6.54,8.43-6.54"/>
        <polygon class="e" points="206.93 118.54 190.13 168.51 177.54 168.51 160.18 118.54 179.47 118.54 190.08 152 200.99 118.54 206.93 118.54"/>
        <path class="e" d="M330.43,118.69v5.6h-8.03v35.35c0,2.21,.71,3.32,2.13,3.32,1.03,0,1.64-.74,1.84-2.23l5.16,.49c-1.42,5.22-5.95,7.83-13.58,7.83-9.09,0-13.63-3.87-13.63-11.6v-33.17h-6.05v-5.6h6.05v-8.82c6.25-1.72,12.28-4.2,18.1-7.44v16.26h8.03Z"/>
        <path class="e" d="M386.6,166.73c-4.43,1.72-8.74,2.58-12.94,2.58-6.21,0-10.05-1.93-11.5-5.8-3.01,4.03-7.34,6.05-12.99,6.05-10.54,0-15.82-4.89-15.82-14.67,0-7.44,4.83-12.66,14.48-15.67,8.86-2.78,13.29-6.11,13.29-10.01,0-5.12-2.55-7.68-7.64-7.68-5.88,0-8.82,2.48-8.82,7.44,0,1.55,.46,3.6,1.39,6.15l-8.97-1.74c-.23-1.55-.35-3.01-.35-4.36,0-7.93,7.24-11.9,21.71-11.9s20.62,3.7,20.62,11.11v30.34c0,3.11,1.01,4.66,3.02,4.66,.63,0,1.55-.35,2.78-1.04l1.73,4.56Zm-25.63-28.26c-1.12,1.29-2.43,2.36-3.92,3.22-3.73,2.18-5.6,5.85-5.6,11.01,0,6.61,1.29,9.92,3.87,9.92,3.77,0,5.65-3.27,5.65-9.82v-14.33Z"/>
        <path class="e" d="M407.87,99.85v68.66h-18.1V100.84c4.99,0,11.02-.33,18.1-.99"/>
        <path class="e" d="M441.09,169.32V101.65h29.2c16.56,0,24.84,6.63,24.84,19.88s-9.2,20.08-27.61,20.08h-6.79v27.71h-19.63Zm19.63-33.96h4.41c7.14,0,10.71-4.73,10.71-14.18,0-8.86-3.57-13.29-10.71-13.29h-4.41v27.47Z"/>
        <path class="e" d="M523.38,118.06c16.53,0,24.79,8.72,24.79,26.18s-8.26,26.18-24.79,26.18-24.84-8.73-24.84-26.18,8.28-26.18,24.84-26.18m-.05,4.41c-4,0-6,7.26-6,21.76s2,21.76,6,21.76,6.05-7.26,6.05-21.76-2.02-21.76-6.05-21.76"/>
        <path class="e" d="M556.01,169.32v-49.92c5.65,0,11.68-.45,18.1-1.34v51.26h-18.1Zm9.17-69.36c5.62,0,8.43,2.18,8.43,6.54s-2.81,6.54-8.43,6.54-8.43-2.18-8.43-6.54,2.81-6.54,8.43-6.54"/>
        <path class="e" d="M631.56,169.32h-18.1v-36.69c0-3.74-1.04-5.6-3.12-5.6s-3.95,1.48-5.5,4.44c-1.55,2.96-2.33,6.45-2.33,10.49v27.37h-18.1v-50.07c6.21,0,12.24-.41,18.1-1.24v9.37c4.49-6.21,9.98-9.32,16.46-9.32,8.4,0,12.59,4.26,12.59,12.79v38.47Z"/>
        <path class="e" d="M668.75,119.5v5.6h-8.03v35.35c0,2.21,.71,3.32,2.13,3.32,1.02,0,1.64-.74,1.84-2.23l5.15,.49c-1.42,5.22-5.95,7.83-13.58,7.83-9.09,0-13.63-3.87-13.63-11.6v-33.17h-6.05v-5.6h6.05v-8.82c6.25-1.72,12.28-4.2,18.1-7.44v16.26h8.03Z"/>
        <path class="f" d="M332.59,222.32v-28.55h12.7c6.54,0,9.81,2.33,9.81,7.01,0,3.32-1.97,5.45-5.92,6.38,4.75,.95,7.13,3.47,7.13,7.57,0,5.06-3.2,7.59-9.6,7.59h-14.12Zm8.28-16.13h2.55c2.36,0,3.53-1.74,3.53-5.23,0-3.22-1.25-4.83-3.74-4.83h-2.34v10.06Zm0,13.76h2.36c3.1,0,4.64-1.77,4.64-5.31,0-4.06-1.6-6.09-4.79-6.09h-2.22v11.4Z"/>
        <path class="f" d="M379.19,200.7v21.63h-7.63v-3.37c-1.76,2.51-4.02,3.76-6.78,3.76-3.72,0-5.58-1.81-5.58-5.44v-16.04c2.57-.11,5.11-.29,7.63-.54v16.4c0,1.42,.43,2.13,1.3,2.13,2.29,0,3.43-2.45,3.43-7.36v-10.62c2.55-.11,5.1-.29,7.63-.54"/>
        <path class="f" d="M399.94,206.66l-3.7,.65c0-3.15-1.46-4.73-4.39-4.73-1.8,0-2.7,.74-2.7,2.22,0,1.09,1.55,2.26,4.64,3.51,4.74,1.94,7.11,4.4,7.11,7.38,0,4.75-3.02,7.13-9.06,7.13-6.39,0-9.58-2.38-9.58-7.13l3.93-.79c-.06,.46-.08,.89-.08,1.3,0,1.23,.51,2.29,1.54,3.2,1.03,.91,2.24,1.36,3.63,1.36,1.84,0,2.76-.78,2.76-2.34,0-1.05-1.49-2.2-4.46-3.47-4.48-1.92-6.71-4.39-6.71-7.4,0-1.99,.86-3.63,2.57-4.9,1.71-1.28,3.92-1.91,6.61-1.91,4.78,0,7.41,1.98,7.89,5.94"/>
        <path class="f" d="M404,222.32v-21.06c2.38,0,4.93-.19,7.63-.56v21.63h-7.63Zm3.87-29.26c2.37,0,3.56,.92,3.56,2.76s-1.19,2.76-3.56,2.76-3.56-.92-3.56-2.76,1.19-2.76,3.56-2.76"/>
        <path class="f" d="M435.87,222.32h-7.64v-15.48c0-1.57-.44-2.36-1.32-2.36s-1.67,.62-2.32,1.87c-.66,1.25-.98,2.72-.98,4.42v11.54h-7.63v-21.12c2.62,0,5.17-.17,7.63-.52v3.95c1.9-2.62,4.21-3.93,6.95-3.93,3.54,0,5.31,1.8,5.31,5.4v16.23Z"/>
        <path class="f" d="M455.26,214.61l3.07,.9c-.32,4.87-3.19,7.3-8.62,7.3-7.03,0-10.54-3.51-10.54-10.52,0-3.4,.93-6.19,2.8-8.37,1.87-2.17,4.26-3.26,7.17-3.26,6.09,0,9.14,3.93,9.14,11.8h-11.13c0,5.52,1.4,8.28,4.2,8.28,2.62,0,3.93-1.56,3.93-4.68,0-.42-.01-.9-.04-1.44m-8.11-4.52h4.56c0-4.91-.74-7.36-2.22-7.36-1.34,0-2.09,1.82-2.26,5.46l-.08,1.9Z"/>
        <path class="f" d="M478.02,206.66l-3.7,.65c0-3.15-1.46-4.73-4.39-4.73-1.8,0-2.7,.74-2.7,2.22,0,1.09,1.55,2.26,4.64,3.51,4.74,1.94,7.11,4.4,7.11,7.38,0,4.75-3.02,7.13-9.06,7.13-6.39,0-9.58-2.38-9.58-7.13l3.93-.79c-.06,.46-.08,.89-.08,1.3,0,1.23,.51,2.29,1.54,3.2,1.03,.91,2.23,1.36,3.63,1.36,1.84,0,2.76-.78,2.76-2.34,0-1.05-1.49-2.2-4.46-3.47-4.48-1.92-6.71-4.39-6.71-7.4,0-1.99,.86-3.63,2.57-4.9,1.71-1.28,3.92-1.91,6.61-1.91,4.78,0,7.41,1.98,7.89,5.94"/>
        <path class="f" d="M498.45,206.66l-3.7,.65c0-3.15-1.46-4.73-4.39-4.73-1.8,0-2.7,.74-2.7,2.22,0,1.09,1.55,2.26,4.64,3.51,4.74,1.94,7.11,4.4,7.11,7.38,0,4.75-3.02,7.13-9.06,7.13-6.39,0-9.58-2.38-9.58-7.13l3.93-.79c-.06,.46-.08,.89-.08,1.3,0,1.23,.51,2.29,1.54,3.2,1.02,.91,2.23,1.36,3.63,1.36,1.84,0,2.76-.78,2.76-2.34,0-1.05-1.49-2.2-4.46-3.47-4.48-1.92-6.71-4.39-6.71-7.4,0-1.99,.86-3.63,2.57-4.9,1.71-1.28,3.92-1.91,6.61-1.91,4.78,0,7.41,1.98,7.89,5.94"/>
        <path class="f" d="M534.28,201.76l-3.85,.71c.17-.77,.25-1.41,.25-1.92,0-3.32-2.01-4.98-6.04-4.98-3.18,0-4.77,1.14-4.77,3.43,0,1.71,1.78,3.19,5.33,4.41,6.86,2.36,10.29,5.84,10.29,10.46,0,2.71-.96,4.88-2.89,6.51-1.92,1.64-4.48,2.46-7.68,2.46-7.07,0-10.6-2.74-10.6-8.22,0-.45,.03-1,.1-1.65l4-.88c-.31,1.21-.46,2.27-.46,3.16,0,3.54,2.03,5.31,6.09,5.31,3.25,0,4.87-1.28,4.87-3.83,0-1.9-1.95-3.56-5.84-5-5.62-2.06-8.43-5.36-8.43-9.89,0-2.56,.94-4.63,2.81-6.2,1.88-1.57,4.34-2.35,7.39-2.35,6.27,0,9.41,2.82,9.41,8.47"/>
        <path class="f" d="M553.87,214.61l3.07,.9c-.32,4.87-3.19,7.3-8.62,7.3-7.03,0-10.54-3.51-10.54-10.52,0-3.4,.93-6.19,2.8-8.37,1.87-2.17,4.26-3.26,7.17-3.26,6.09,0,9.14,3.93,9.14,11.8h-11.13c0,5.52,1.4,8.28,4.2,8.28,2.62,0,3.93-1.56,3.93-4.68,0-.42-.01-.9-.04-1.44m-8.11-4.52h4.56c0-4.91-.74-7.36-2.22-7.36-1.34,0-2.09,1.82-2.26,5.46l-.08,1.9Z"/>
        <path class="f" d="M575.33,208.9h-5.23c.18-.82,.34-1.43,.48-1.82,.2-.57,.29-1.09,.29-1.55,0-.89-.32-1.34-.96-1.34-.49,0-.95,.59-1.4,1.77-.45,1.18-.67,2.42-.67,3.73v12.63h-7.63v-21.08l1.48,.02c1.76,0,3.81-.19,6.15-.56v3.47c1.24-2.31,2.76-3.47,4.56-3.47,2.45,0,3.68,1.35,3.68,4.06,0,.71-.12,1.53-.36,2.45-.08,.38-.22,.94-.4,1.69"/>
        <polygon class="f" points="595.62 201.24 588.53 222.32 583.22 222.32 575.9 201.24 584.03 201.24 588.51 215.36 593.11 201.24 595.62 201.24"/>
        <path class="f" d="M597.34,222.32v-21.06c2.39,0,4.93-.19,7.63-.56v21.63h-7.63Zm3.87-29.26c2.37,0,3.56,.92,3.56,2.76s-1.19,2.76-3.56,2.76-3.56-.92-3.56-2.76,1.19-2.76,3.56-2.76"/>
        <path class="f" d="M624.25,212.91l3.22,.98,.02,.86c0,5.35-2.93,8.03-8.78,8.03-6.94,0-10.42-3.52-10.42-10.56,0-3.53,1.01-6.34,3.03-8.44,2.02-2.1,4.73-3.15,8.14-3.15,4.89,0,7.34,2.22,7.34,6.65l-3.58,1.74,.04-2.01c0-3.01-1.01-4.52-3.03-4.52-2.68,0-4.01,2.96-4.01,8.87,0,3.65,.28,6.16,.86,7.52,.57,1.36,1.63,2.04,3.18,2.04,2.83,0,4.24-1.83,4.24-5.5,0-.52-.08-1.35-.25-2.51"/>
        <path class="f" d="M645.27,214.61l3.08,.9c-.32,4.87-3.19,7.3-8.62,7.3-7.03,0-10.54-3.51-10.54-10.52,0-3.4,.93-6.19,2.8-8.37,1.87-2.17,4.26-3.26,7.18-3.26,6.09,0,9.14,3.93,9.14,11.8h-11.13c0,5.52,1.4,8.28,4.2,8.28,2.62,0,3.93-1.56,3.93-4.68,0-.42-.01-.9-.04-1.44m-8.11-4.52h4.56c0-4.91-.74-7.36-2.22-7.36-1.34,0-2.09,1.82-2.26,5.46l-.08,1.9Z"/>
        <path class="f" d="M668.03,206.66l-3.7,.65c0-3.15-1.46-4.73-4.39-4.73-1.8,0-2.7,.74-2.7,2.22,0,1.09,1.55,2.26,4.64,3.51,4.74,1.94,7.11,4.4,7.11,7.38,0,4.75-3.02,7.13-9.06,7.13-6.39,0-9.58-2.38-9.58-7.13l3.93-.79c-.06,.46-.08,.89-.08,1.3,0,1.23,.51,2.29,1.54,3.2,1.02,.91,2.23,1.36,3.63,1.36,1.84,0,2.76-.78,2.76-2.34,0-1.05-1.49-2.2-4.46-3.47-4.48-1.92-6.71-4.39-6.71-7.4,0-1.99,.86-3.63,2.57-4.9,1.72-1.28,3.92-1.91,6.61-1.91,4.78,0,7.41,1.98,7.89,5.94"/>
    </g>
</svg>